HIERARCHY
ROOT Hips
{
	OFFSET 0.00000 0.00000 0.00000
	CHANNELS 6 Xposition Yposition Zposition Zrotation Yrotation Xrotation 
	JOINT LHipJoint
	{
		OFFSET 0 0 0
		CHANNELS 3 Zrotation Yrotation Xrotation
		JOINT LeftHip
		{
			OFFSET 1.64577 -1.42384 0.94276
			CHANNELS 3 Zrotation Yrotation Xrotation
			JOINT LeftKnee
			{
				OFFSET 2.11538 -5.81197 0.00000
				CHANNELS 3 Zrotation Yrotation Xrotation
				JOINT LeftAnkle
				{
					OFFSET 2.36541 -6.49893 0.00000
					CHANNELS 3 Zrotation Yrotation Xrotation
					JOINT LeftToe
					{
						OFFSET 0.17759 -0.48793 1.73865
						CHANNELS 3 Zrotation Yrotation Xrotation
						End Site
						{
							OFFSET 0.00000 -0.00000 0.91205
						}
					}
				}
			}
		}
	}
	JOINT RHipJoint
	{
		OFFSET 0 0 0
		CHANNELS 3 Zrotation Yrotation Xrotation
		JOINT RightHip
		{
			OFFSET -1.43750 -1.42384 0.94276
			CHANNELS 3 Zrotation Yrotation Xrotation
			JOINT RightKnee
			{
				OFFSET -2.10480 -5.78291 0.00000
				CHANNELS 3 Zrotation Yrotation Xrotation
				JOINT RightAnkle
				{
					OFFSET -2.34880 -6.45329 0.00000
					CHANNELS 3 Zrotation Yrotation Xrotation
					JOINT RightToe
					{
						OFFSET -0.22842 -0.62757 1.80469
						CHANNELS 3 Zrotation Yrotation Xrotation
						End Site
						{
							OFFSET -0.00000 -0.00000 0.95886
						}
					}
				}
			}
		}
	}
	JOINT lowerback
	{
		OFFSET 0 0 0
		CHANNELS 3 Zrotation Yrotation Xrotation
		JOINT Chest
		{
			OFFSET 0.06217 1.93758 -0.49272
			CHANNELS 3 Zrotation Yrotation Xrotation
			JOINT Chest2
			{
				OFFSET -0.03114 2.03621 -0.05830
				CHANNELS 3 Zrotation Yrotation Xrotation
				JOINT lowerneck
				{
					OFFSET 0 0 0
					CHANNELS 3 Zrotation Yrotation Xrotation
					JOINT Neck
					{
						OFFSET 0.04421 1.41010 0.26562
						CHANNELS 3 Zrotation Yrotation Xrotation
						JOINT Head
						{
							OFFSET -0.13407 1.43847 0.06181
							CHANNELS 3 Zrotation Yrotation Xrotation
							End Site
							{
								OFFSET -0.04980 1.45844 -0.00689
							}
						}
					}
				}
				JOINT LeftCollar
				{
					OFFSET 0 0 0
					CHANNELS 3 Zrotation Yrotation Xrotation
					JOINT LeftShoulder
					{
						OFFSET 2.18382 1.47753 -0.35694
CHANNELS 3 Zrotation Xrotation Yrotation
						JOINT LeftElbow
						{
OFFSET 0 -5.054600 0.000000
CHANNELS 3 Zrotation Xrotation Yrotation
							JOINT LeftWrist
							{
OFFSET 0 -3.390130 0.000000
CHANNELS 3 Zrotation Xrotation Yrotation
								JOINT lhand
								{
									OFFSET 0 0 0
CHANNELS 3 Zrotation Xrotation Yrotation
									JOINT LFingers
									{
OFFSET 0 -0.572420 -0.000000
CHANNELS 3 Zrotation Xrotation Yrotation
										End Site
										{
OFFSET 0 -0.461500 -0.000000
										}
									}
								}
								JOINT LThumb
								{
OFFSET 0 0.000000 0.000000
CHANNELS 3 Zrotation Xrotation Yrotation
									End Site
									{
OFFSET 0 -0.468550 0.468550
									}
								}
							}
						}
					}
				}
				JOINT RightCollar
				{
					OFFSET 0 0 0
					CHANNELS 3 Zrotation Yrotation Xrotation
					JOINT RightShoulder
					{
						OFFSET -2.06033 1.72839 -0.47437
CHANNELS 3 Zrotation Xrotation Yrotation
						JOINT RightElbow
						{
OFFSET 0 -5.070100 0.000000
CHANNELS 3 Zrotation Xrotation Yrotation
							JOINT RightWrist
							{
OFFSET 0 -3.149570 -0.000000
CHANNELS 3 Zrotation Xrotation Yrotation
								JOINT rhand
								{
									OFFSET 0 0 0
CHANNELS 3 Zrotation Xrotation Yrotation
									JOINT RFingers
									{
OFFSET 0 -0.718190 -0.000000
CHANNELS 3 Zrotation Xrotation Yrotation
										End Site
										{
OFFSET 0 -0.579020 -0.000000
										}
									}
								}
								JOINT RThumb
								{
OFFSET 0 0.000000 0.000000
CHANNELS 3 Zrotation Xrotation Yrotation
									End Site
									{
OFFSET 0 -0.587860 0.587860
									}
								}
							}
						}
					}
				}
			}
		}
	}
}
MOTION
Frames: 8
Frame Time: 0.008333333333333333
-22.645200 15.001700 0.979600 -15.862400 85.185700 -18.632800 0.000000 0.000000 0.000000 -21.754500 -20.893900 3.032100 2.556500 9.940000 28.782700 1.505200 17.186200 -34.750000 0.153600 -2.525000 -6.959000 0.000000 0.000000 0.000000 25.343700 19.384700 3.033000 -2.122600 -9.117000 26.162000 -2.137800 -18.918100 -39.551500 -1.026700 6.445600 -18.082800 -0.114100 2.698600 4.874600 -1.248800 3.614600 1.952000 -1.407700 1.827200 -0.648800 11.286600 5.414100 -3.648400 -4.964000 7.293500 14.246500 -2.933500 3.937200 5.495900 0.000000 0.000000 0.000000 3.394500 1.492900 -22.971100 14.921900 -24.037200 3.194100 17.648600 6.819600 -10.018500 0.000000 0.000000 0.000000 -7.125000 0.000000 0.000000 -8.231900 40.348000 -0.951500 0.000000 0.000000 0.000000 -1.216700 6.430100 29.090900 -18.035500 -28.202500 -4.566000 -16.272500 -16.268800 -2.061100 0.000000 0.000000 0.000000 7.125000 0.000000 -0.000000 7.937600 27.803600 3.348500
-22.644636 15.004025 0.978402 -16.702243 85.179923 -19.385073 0.000000 0.000000 0.000000 -21.652206 -20.943497 2.934385 2.557909 9.942466 28.790520 1.498155 17.201699 -34.724990 0.156207 -2.546558 -7.018813 0.000000 0.000000 0.000000 25.376389 19.399072 2.968890 -2.112737 -9.097062 26.099440 -2.135405 -18.883931 -39.510850 -1.010426 6.395791 -17.937108 -0.017864 2.689723 4.777167 -1.241966 3.606921 1.937628 -1.449055 1.823466 -0.604134 11.244541 5.414241 -3.684753 -4.872907 7.283496 14.311596 -2.897288 3.936707 5.517035 0.000000 0.000000 0.000000 3.430712 1.513894 -22.850066 14.856169 -23.945332 3.167399 17.571738 6.765494 -9.761284 0.000000 0.000000 0.000000 -7.125000 0.000000 0.000000 -8.253599 40.075778 -1.009833 0.000000 0.000000 0.000000 -1.192465 6.405442 29.081319 -18.010279 -28.170304 -4.554094 -16.281588 -16.247383 -2.022845 0.000000 0.000000 0.000000 7.125000 0.000000 0.000000 7.933303 27.843123 3.339130
-22.643664 15.006309 0.977409 -16.473985 85.194679 -19.074562 0.000000 0.000000 0.000000 -21.666194 -21.015877 2.872540 2.554982 9.937160 28.773390 1.484729 17.266730 -34.710533 0.157995 -2.561081 -7.059034 0.000000 0.000000 0.000000 25.310260 19.417452 2.899544 -2.106391 -9.084242 26.059212 -2.152683 -18.812788 -39.531716 -0.995951 6.351136 -17.806631 -0.019997 2.690131 4.685705 -1.256647 3.607258 1.919943 -1.458506 1.823495 -0.570553 11.216756 5.406324 -3.736361 -4.806928 7.264126 14.398575 -2.871466 3.931265 5.548150 0.000000 0.000000 0.000000 3.454817 1.556975 -22.710094 14.801932 -23.869416 3.145402 17.488700 6.696622 -9.473515 0.000000 0.000000 0.000000 -7.125000 0.000000 0.000000 -8.275829 39.771613 -1.075079 0.000000 0.000000 0.000000 -1.173711 6.403280 29.056931 -17.988288 -28.142198 -4.543742 -16.272516 -16.241877 -2.008395 0.000000 0.000000 0.000000 7.125000 0.000000 0.000000 7.941275 27.858064 3.339699
-22.642441 15.008779 0.976598 -15.581368 85.220919 -18.096891 0.000000 0.000000 0.000000 -21.750818 -21.106214 2.829186 2.549185 9.926717 28.739745 1.467772 17.362698 -34.705288 0.158966 -2.568784 -7.080321 0.000000 0.000000 0.000000 25.182095 19.442157 2.821296 -2.102053 -9.075484 26.031746 -2.179872 -18.731585 -39.590916 -0.984355 6.315097 -17.701439 -0.095238 2.689175 4.592949 -1.282057 3.602932 1.909389 -1.437768 1.821100 -0.532764 11.209842 5.406300 -3.840621 -4.774258 7.252235 14.505291 -2.857326 3.927798 5.596965 0.000000 0.000000 0.000000 3.462137 1.592276 -22.530467 14.758859 -23.809031 3.127961 17.420647 6.650096 -9.212465 0.000000 0.000000 0.000000 -7.125000 0.000000 0.000000 -8.290021 39.496339 -1.133489 0.000000 0.000000 0.000000 -1.162061 6.384665 29.043053 -17.962957 -28.109748 -4.531834 -16.247100 -16.242450 -2.011517 0.000000 0.000000 0.000000 7.125000 0.000000 0.000000 7.960543 27.854894 3.348561
-22.641455 15.012372 0.975964 -15.247290 85.229725 -17.643189 0.000000 0.000000 0.000000 -21.765824 -21.204352 2.747181 2.544746 9.918756 28.713960 1.456430 17.433430 -34.708318 0.158755 -2.567446 -7.076728 0.000000 0.000000 0.000000 25.102626 19.484709 2.716395 -2.094938 -9.061112 25.986728 -2.184663 -18.737081 -39.618321 -0.980973 6.304530 -17.670652 -0.181118 2.646200 4.470999 -1.282409 3.544176 1.948419 -1.379858 1.791934 -0.431385 11.257890 5.477666 -4.161594 -4.820545 7.314514 14.632454 -2.864935 3.953231 5.700387 0.000000 0.000000 0.000000 3.427617 1.504001 -22.215622 14.730679 -23.769509 3.116548 17.453829 6.775428 -9.205420 0.000000 0.000000 0.000000 -7.125000 0.000000 0.000000 -8.260361 39.491619 -1.130319 0.000000 0.000000 0.000000 -1.166781 6.195786 29.139570 -17.908075 -28.039297 -4.505978 -16.204900 -16.214833 -2.016590 0.000000 0.000000 0.000000 7.125000 0.000000 0.000000 7.992457 27.849892 3.363215
-22.640312 15.015860 0.974755 -16.069588 85.200073 -18.343040 0.000000 0.000000 0.000000 -21.657354 -21.268002 2.657704 2.538531 9.907608 28.677986 1.448849 17.474117 -34.704293 0.160372 -2.580163 -7.111960 0.000000 0.000000 0.000000 25.134929 19.527105 2.605746 -2.091062 -9.053272 25.962089 -2.187363 -18.705162 -39.603767 -0.960035 6.238573 -17.478401 -0.125651 2.619058 4.342308 -1.264002 3.510868 1.953379 -1.383346 1.775517 -0.353260 11.258020 5.511306 -4.308563 -4.819855 7.342775 14.685522 -2.858069 3.964816 5.744553 0.000000 0.000000 0.000000 3.433801 1.473101 -22.081471 14.702760 -23.730351 3.105292 17.525941 6.873535 -9.332510 0.000000 0.000000 0.000000 -7.125000 0.000000 0.000000 -8.219676 39.628716 -1.096841 0.000000 0.000000 0.000000 -1.153264 6.092029 29.182893 -17.864481 -27.983321 -4.485505 -16.178272 -16.179378 -2.049932 0.000000 0.000000 0.000000 7.125000 0.000000 0.000000 8.010576 27.815680 3.377503
-22.638728 15.019926 0.973369 -16.854686 85.170401 -18.979915 0.000000 0.000000 0.000000 -21.537717 -21.328929 2.534452 2.532197 9.896212 28.641233 1.443578 17.499936 -34.699242 0.161559 -2.589489 -7.137780 0.000000 0.000000 0.000000 25.154116 19.582501 2.467235 -2.088133 -9.047343 25.943479 -2.185703 -18.677129 -39.571876 -0.942949 6.184773 -17.321511 -0.051567 2.605694 4.184183 -1.252958 3.495957 1.931286 -1.404923 1.768036 -0.284435 11.232746 5.515937 -4.363513 -4.796834 7.341571 14.705816 -2.845209 3.963565 5.758457 0.000000 0.000000 0.000000 3.477366 1.475281 -22.096773 14.673206 -23.688870 3.093409 17.623983 6.887850 -9.500863 0.000000 0.000000 0.000000 -7.125000 0.000000 0.000000 -8.163571 39.810681 -1.052424 0.000000 0.000000 0.000000 -1.134351 6.054015 29.203696 -17.839598 -27.951366 -4.473831 -16.161085 -16.166464 -2.094435 0.000000 0.000000 0.000000 7.125000 0.000000 0.000000 8.020735 27.769888 3.390596
-22.636333 15.025280 0.972030 -16.714701 85.168851 -18.639567 0.000000 0.000000 0.000000 -21.485020 -21.409383 2.345644 2.526913 9.886631 28.610305 1.440408 17.516491 -34.697198 0.160503 -2.581387 -7.115377 0.000000 0.000000 0.000000 25.063868 19.665351 2.274341 -2.084822 -9.040650 25.922626 -2.176404 -18.684668 -39.534255 -0.946824 6.197102 -17.357230 -0.041845 2.609710 3.969097 -1.271134 3.501100 1.877250 -1.419576 1.770008 -0.218141 11.189137 5.487193 -4.352381 -4.761257 7.303317 14.711452 -2.830344 3.945459 5.752116 0.000000 0.000000 0.000000 3.569727 1.505012 -22.294035 14.640024 -23.642231 3.080094 17.748046 6.745892 -9.657757 0.000000 0.000000 0.000000 -7.125000 0.000000 0.000000 -8.083117 39.983144 -1.007194 0.000000 0.000000 0.000000 -1.117443 6.091918 29.216095 -17.845798 -27.959327 -4.476719 -16.152349 -16.206692 -2.141707 0.000000 0.000000 0.000000 7.125000 0.000000 0.000000 8.024258 27.721137 3.401446
